<svg id="visual" viewBox="0 0 900 600" width="900" height="600" xmlns="http://www.w3.org/2000/svg" xmlns:xlink="http://www.w3.org/1999/xlink" version="1.1"><rect x="0" y="0" width="900" height="600" fill="#ffffff"></rect><defs><linearGradient id="grad1_0" x1="33.3%" y1="100%" x2="100%" y2="0%"><stop offset="20%" stop-color="#ffffff" stop-opacity="1"></stop><stop offset="80%" stop-color="#ffffff" stop-opacity="1"></stop></linearGradient></defs><defs><linearGradient id="grad2_0" x1="0%" y1="100%" x2="66.7%" y2="0%"><stop offset="20%" stop-color="#ffffff" stop-opacity="1"></stop><stop offset="80%" stop-color="#ffffff" stop-opacity="1"></stop></linearGradient></defs><g transform="translate(900, 600)"><path d="M-216.3 0C-194.5 -13.6 -172.6 -27.3 -151.1 -34.5C-129.6 -41.7 -108.4 -42.4 -101.8 -49C-95.2 -55.6 -103.3 -68 -114.1 -91C-125 -114 -138.5 -147.6 -134.9 -169.1C-131.2 -190.6 -110.4 -200.1 -88.5 -183.8C-66.7 -167.5 -43.8 -125.6 -28.9 -126.7C-14 -127.9 -7 -172.1 0 -216.3L0 0Z" fill="#Ce417d"></path></g><g transform="translate(0, 0)"><path d="M216.3 0C206.4 13.6 196.5 27.2 191.1 43.6C185.7 60 184.8 79.2 162.2 78.1C139.6 77 95.3 55.6 94.6 75.4C93.9 95.3 136.8 156.3 134.9 169.1C132.9 182 86.1 146.6 61.6 127.9C37.1 109.3 35 107.3 28.5 124.8C21.9 142.3 11 179.3 0 216.3L0 0Z" fill="#Ce417d"></path></g></svg>